<svg width="66" height="66" viewBox="0 0 66 66" fill="none" xmlns="http://www.w3.org/2000/svg">
<rect width="66" height="66" rx="6" fill="#303942" fill-opacity="0.2"/>
<path d="M31 23V25" stroke="black" stroke-width="2" stroke-linecap="round" stroke-linejoin="round"/>
<path d="M35 23V25" stroke="black" stroke-width="2" stroke-linecap="round" stroke-linejoin="round"/>
<path d="M37 29C37.2652 29 37.5196 29.1054 37.7071 29.2929C37.8946 29.4804 38 29.7348 38 30V38C38 39.0609 37.5786 40.0783 36.8284 40.8284C36.0783 41.5786 35.0609 42 34 42H28C26.9391 42 25.9217 41.5786 25.1716 40.8284C24.4214 40.0783 24 39.0609 24 38V30C24 29.7348 24.1054 29.4804 24.2929 29.2929C24.4804 29.1054 24.7348 29 25 29H39C40.0609 29 41.0783 29.4214 41.8284 30.1716C42.5786 30.9217 43 31.9391 43 33C43 34.0609 42.5786 35.0783 41.8284 35.8284C41.0783 36.5786 40.0609 37 39 37H38" stroke="black" stroke-width="2" stroke-linecap="round" stroke-linejoin="round"/>
<path d="M27 23V25" stroke="black" stroke-width="2" stroke-linecap="round" stroke-linejoin="round"/>
</svg>
