<svg width="66" height="66" viewBox="0 0 66 66" fill="none" xmlns="http://www.w3.org/2000/svg">
<rect width="66" height="66" fill="white" fill-opacity="0.2"/>
<path d="M41 34.0004C41 39.0004 37.5 41.5005 33.34 42.9505C33.1222 43.0243 32.8855 43.0207 32.67 42.9405C28.5 41.5005 25 39.0004 25 34.0004V27.0004C25 26.7352 25.1054 26.4809 25.2929 26.2933C25.4804 26.1058 25.7348 26.0004 26 26.0004C28 26.0004 30.5 24.8004 32.24 23.2804C32.4519 23.0994 32.7214 23 33 23C33.2786 23 33.5481 23.0994 33.76 23.2804C35.51 24.8104 38 26.0004 40 26.0004C40.2652 26.0004 40.5196 26.1058 40.7071 26.2933C40.8946 26.4809 41 26.7352 41 27.0004V34.0004Z" stroke="white" stroke-width="2" stroke-linecap="round" stroke-linejoin="round"/>
<path d="M30 33L32 35L36 31" stroke="white" stroke-width="2" stroke-linecap="round" stroke-linejoin="round"/>
</svg>
