<svg width="66" height="66" viewBox="0 0 66 66" fill="none" xmlns="http://www.w3.org/2000/svg">
<rect width="66" height="66" fill="white" fill-opacity="0.2"/>
<path d="M36.3908 25.3901C36.5165 25.5159 36.6735 25.6059 36.8456 25.6509C37.0177 25.6958 37.1987 25.6941 37.3698 25.6458C37.541 25.5975 37.6962 25.5044 37.8194 25.3761C37.9427 25.2479 38.0294 25.0891 38.0708 24.9161C38.1746 24.484 38.3918 24.0874 38.6998 23.7671C39.0079 23.4468 39.3957 23.2144 39.8235 23.0938C40.2512 22.9733 40.7033 22.9689 41.1333 23.0812C41.5633 23.1934 41.9556 23.4183 42.2697 23.7326C42.5839 24.0469 42.8087 24.4392 42.9208 24.8692C43.0329 25.2993 43.0284 25.7514 42.9077 26.1791C42.787 26.6068 42.5545 26.9946 42.2341 27.3025C41.9137 27.6104 41.517 27.8274 41.0848 27.9311C40.9119 27.9725 40.7531 28.0593 40.6248 28.1825C40.4965 28.3057 40.4035 28.4609 40.3552 28.6321C40.3069 28.8033 40.3051 28.9842 40.35 29.1563C40.395 29.3284 40.485 29.4854 40.6108 29.6111L42.2938 31.2931C42.518 31.5173 42.6958 31.7834 42.8172 32.0763C42.9385 32.3691 43.0009 32.6831 43.0009 33.0001C43.0009 33.3171 42.9385 33.631 42.8172 33.9239C42.6958 34.2168 42.518 34.4829 42.2938 34.7071L40.6108 36.3901C40.4851 36.5159 40.3281 36.6059 40.1561 36.6509C39.984 36.6958 39.803 36.6941 39.6318 36.6458C39.4607 36.5975 39.3055 36.5044 39.1822 36.3761C39.059 36.2479 38.9722 36.0891 38.9308 35.9161C38.827 35.484 38.6099 35.0874 38.3019 34.7671C37.9938 34.4468 37.606 34.2144 37.1782 34.0938C36.7505 33.9733 36.2984 33.9689 35.8684 34.0812C35.4384 34.1934 35.0461 34.4183 34.7319 34.7326C34.4178 35.0469 34.193 35.4392 34.0809 35.8692C33.9688 36.2993 33.9733 36.7514 34.094 37.1791C34.2147 37.6068 34.4472 37.9946 34.7676 38.3025C35.088 38.6104 35.4847 38.8274 35.9168 38.9311C36.0898 38.9725 36.2486 39.0593 36.3769 39.1825C36.5051 39.3057 36.5982 39.4609 36.6465 39.6321C36.6948 39.8033 36.6966 39.9842 36.6516 40.1563C36.6067 40.3284 36.5167 40.4854 36.3908 40.6111L34.7078 42.2931C34.4837 42.5173 34.2176 42.6951 33.9247 42.8164C33.6318 42.9377 33.3179 43.0002 33.0008 43.0002C32.6838 43.0002 32.3699 42.9377 32.077 42.8164C31.7841 42.6951 31.518 42.5173 31.2938 42.2931L29.6108 40.6101C29.4851 40.4843 29.3281 40.3942 29.1561 40.3493C28.984 40.3043 28.803 40.3061 28.6318 40.3544C28.4607 40.4027 28.3055 40.4958 28.1822 40.624C28.059 40.7523 27.9722 40.9111 27.9308 41.0841C27.827 41.5162 27.6099 41.9128 27.3019 42.2331C26.9938 42.5534 26.606 42.7858 26.1782 42.9064C25.7505 43.0269 25.2984 43.0313 24.8684 42.919C24.4384 42.8067 24.0461 42.5819 23.7319 42.2676C23.4178 41.9533 23.193 41.561 23.0809 41.1309C22.9688 40.7009 22.9733 40.2488 23.094 39.8211C23.2147 39.3934 23.4472 39.0056 23.7676 38.6977C24.088 38.3897 24.4847 38.1728 24.9168 38.0691C25.0898 38.0277 25.2486 37.9409 25.3769 37.8177C25.5051 37.6945 25.5982 37.5393 25.6465 37.3681C25.6948 37.1969 25.6966 37.016 25.6516 36.8439C25.6067 36.6718 25.5167 36.5148 25.3908 36.3891L23.7078 34.7071C23.4837 34.4829 23.3058 34.2168 23.1845 33.9239C23.0632 33.631 23.0008 33.3171 23.0008 33.0001C23.0008 32.6831 23.0632 32.3691 23.1845 32.0763C23.3058 31.7834 23.4837 31.5173 23.7078 31.2931L25.3908 29.6101C25.5165 29.4843 25.6735 29.3942 25.8456 29.3493C26.0177 29.3043 26.1987 29.3061 26.3698 29.3544C26.541 29.4027 26.6962 29.4958 26.8194 29.624C26.9427 29.7523 27.0294 29.9111 27.0708 30.0841C27.1746 30.5162 27.3918 30.9128 27.6998 31.2331C28.0079 31.5534 28.3957 31.7858 28.8235 31.9064C29.2512 32.0269 29.7033 32.0313 30.1333 31.919C30.5633 31.8067 30.9556 31.5819 31.2697 31.2676C31.5839 30.9533 31.8087 30.561 31.9208 30.1309C32.0329 29.7009 32.0284 29.2488 31.9077 28.8211C31.787 28.3934 31.5545 28.0056 31.2341 27.6977C30.9137 27.3897 30.517 27.1727 30.0848 27.0691C29.9119 27.0277 29.7531 26.9409 29.6248 26.8177C29.4965 26.6945 29.4035 26.5393 29.3552 26.3681C29.3069 26.1969 29.3051 26.016 29.35 25.8439C29.395 25.6718 29.485 25.5148 29.6108 25.3891L31.2938 23.7071C31.518 23.4829 31.7841 23.3051 32.077 23.1838C32.3699 23.0624 32.6838 23 33.0008 23C33.3179 23 33.6318 23.0624 33.9247 23.1838C34.2176 23.3051 34.4837 23.4829 34.7078 23.7071L36.3908 25.3901Z" stroke="white" stroke-width="2" stroke-linecap="round" stroke-linejoin="round"/>
</svg>
