<svg width="66" height="66" viewBox="0 0 66 66" fill="none" xmlns="http://www.w3.org/2000/svg">
<rect width="66" height="66" rx="6" fill="#303942" fill-opacity="0.2"/>
<path d="M42.9999 32.0003V33.0003C42.9898 35.0186 42.3691 36.9867 41.2196 38.6457C40.0701 40.3047 38.4454 41.577 36.5592 42.2954C34.6731 43.0137 32.6137 43.1445 30.6517 42.6706C28.6898 42.1966 26.9173 41.1401 25.5671 39.6399C24.2169 38.1396 23.3522 36.2659 23.0868 34.2651C22.8214 32.2643 23.1677 30.23 24.0801 28.4297C24.9925 26.6293 26.4283 25.1472 28.1989 24.1782C29.9694 23.2091 31.9917 22.7985 33.9999 23.0003" stroke="black" stroke-width="2" stroke-linecap="round" stroke-linejoin="round"/>
<path d="M29 35C29 35 30.5 37 33 37C35.5 37 37 35 37 35" stroke="black" stroke-width="2" stroke-linecap="round" stroke-linejoin="round"/>
<path d="M30 30H30.01" stroke="black" stroke-width="2" stroke-linecap="round" stroke-linejoin="round"/>
<path d="M36 30H36.01" stroke="black" stroke-width="2" stroke-linecap="round" stroke-linejoin="round"/>
<path d="M37 26H43" stroke="black" stroke-width="2" stroke-linecap="round" stroke-linejoin="round"/>
<path d="M40 23V29" stroke="black" stroke-width="2" stroke-linecap="round" stroke-linejoin="round"/>
</svg>
