<svg width="66" height="66" viewBox="0 0 66 66" fill="none" xmlns="http://www.w3.org/2000/svg">
<rect width="66" height="66" fill="white" fill-opacity="0.2"/>
<path d="M32 38L34 40C34.197 40.197 34.4308 40.3532 34.6882 40.4598C34.9456 40.5665 35.2214 40.6213 35.5 40.6213C35.7786 40.6213 36.0544 40.5665 36.3118 40.4598C36.5692 40.3532 36.803 40.197 37 40C37.197 39.803 37.3532 39.5692 37.4598 39.3118C37.5665 39.0544 37.6213 38.7786 37.6213 38.5C37.6213 38.2214 37.5665 37.9456 37.4598 37.6882C37.3532 37.4308 37.197 37.197 37 37" stroke="white" stroke-width="2" stroke-linecap="round" stroke-linejoin="round"/>
<path d="M35.0002 35.0005L37.5002 37.5005C37.8981 37.8983 38.4376 38.1218 39.0002 38.1218C39.5628 38.1218 40.1024 37.8983 40.5002 37.5005C40.8981 37.1027 41.1215 36.5631 41.1215 36.0005C41.1215 35.4379 40.8981 34.8983 40.5002 34.5005L36.6202 30.6205C36.0577 30.0587 35.2952 29.7431 34.5002 29.7431C33.7052 29.7431 32.9427 30.0587 32.3802 30.6205L31.5002 31.5005C31.1024 31.8983 30.5628 32.1218 30.0002 32.1218C29.4376 32.1218 28.8981 31.8983 28.5002 31.5005C28.1024 31.1027 27.8789 30.5631 27.8789 30.0005C27.8789 29.4379 28.1024 28.8983 28.5002 28.5005L31.3102 25.6905C32.2225 24.7806 33.4121 24.2011 34.6909 24.0435C35.9696 23.8859 37.2644 24.1593 38.3702 24.8205L38.8402 25.1005C39.266 25.3575 39.7723 25.4466 40.2602 25.3505L42.0002 25.0005" stroke="white" stroke-width="2" stroke-linecap="round" stroke-linejoin="round"/>
<path d="M42 24L43 35H41" stroke="white" stroke-width="2" stroke-linecap="round" stroke-linejoin="round"/>
<path d="M24 24L23 35L29.5 41.5C29.8978 41.8978 30.4374 42.1213 31 42.1213C31.5626 42.1213 32.1022 41.8978 32.5 41.5C32.8978 41.1022 33.1213 40.5626 33.1213 40C33.1213 39.4374 32.8978 38.8978 32.5 38.5" stroke="white" stroke-width="2" stroke-linecap="round" stroke-linejoin="round"/>
<path d="M24 25H32" stroke="white" stroke-width="2" stroke-linecap="round" stroke-linejoin="round"/>
</svg>
