<svg width="44" height="44" viewBox="0 0 44 44" fill="none" xmlns="http://www.w3.org/2000/svg">
<rect width="44" height="44" fill="white" fill-opacity="0.27"/>
<path d="M23.832 26.568C24.0385 26.6628 24.2712 26.6845 24.4917 26.6294C24.7122 26.5744 24.9073 26.4458 25.045 26.265L25.4 25.8C25.5863 25.5516 25.8279 25.35 26.1056 25.2111C26.3833 25.0723 26.6895 25 27 25H30C30.5304 25 31.0391 25.2107 31.4142 25.5858C31.7893 25.9609 32 26.4696 32 27V30C32 30.5304 31.7893 31.0391 31.4142 31.4142C31.0391 31.7893 30.5304 32 30 32C25.2261 32 20.6477 30.1036 17.2721 26.7279C13.8964 23.3523 12 18.7739 12 14C12 13.4696 12.2107 12.9609 12.5858 12.5858C12.9609 12.2107 13.4696 12 14 12H17C17.5304 12 18.0391 12.2107 18.4142 12.5858C18.7893 12.9609 19 13.4696 19 14V17C19 17.3105 18.9277 17.6167 18.7889 17.8944C18.65 18.1721 18.4484 18.4137 18.2 18.6L17.732 18.951C17.5484 19.0912 17.419 19.2906 17.3658 19.5154C17.3126 19.7401 17.3388 19.9764 17.44 20.184C18.8067 22.9599 21.0544 25.2048 23.832 26.568Z" stroke="white" stroke-width="2" stroke-linecap="round" stroke-linejoin="round"/>
</svg>
