<svg width="144" height="55" viewBox="0 0 144 55" fill="none" xmlns="http://www.w3.org/2000/svg">
<circle cx="27.5" cy="27.5" r="27.5" fill="white" fill-opacity="0.06"/>
<rect x="17.5" y="11.5" width="20" height="33" rx="10" stroke="white" stroke-opacity="0.42"/>
<line x1="27.5" y1="40.5" x2="27.5" y2="35.5" stroke="white" stroke-opacity="0.42" stroke-linecap="round"/>
<path d="M71.88 18.52H68.92V23H68.36V11.512H71.88C74.024 11.512 75.576 12.792 75.576 15.016C75.576 17.256 74.024 18.52 71.88 18.52ZM71.864 11.992H68.92V18.04H71.864C73.768 18.04 75.016 16.968 75.016 15.016C75.016 13.08 73.768 11.992 71.864 11.992ZM80.5433 23.16C78.2873 23.16 76.7033 21.384 76.7033 18.808C76.7033 16.264 78.2873 14.488 80.5433 14.488C82.7993 14.488 84.3833 16.264 84.3833 18.808C84.3833 21.384 82.7993 23.16 80.5433 23.16ZM80.5433 22.712C82.4633 22.712 83.8393 21.16 83.8393 18.808C83.8393 16.488 82.4633 14.936 80.5433 14.936C78.6233 14.936 77.2473 16.488 77.2473 18.808C77.2473 21.16 78.6233 22.712 80.5433 22.712ZM86.9345 23H86.3905V11.512H86.9345V18.712L91.4945 14.632H92.1825L87.5585 18.776L92.5025 23H91.7505L86.9345 18.904V23ZM94.372 18.296V23H93.828V14.632H94.356V16.696C94.9 15.368 96.116 14.472 97.508 14.472V15.048C95.78 15.048 94.372 16.472 94.372 18.296ZM104.232 23V21.224C103.784 22.408 102.648 23.16 101.272 23.16C99.5439 23.16 98.4399 22.216 98.4399 20.744C98.4399 19.096 99.7359 18.264 102.312 18.264C102.84 18.264 103.224 18.28 104.216 18.36V17.544C104.216 15.896 103.352 14.92 101.88 14.92C100.296 14.92 99.2879 15.928 99.2879 17.528H98.7759C98.7759 15.688 100.008 14.472 101.864 14.472C103.688 14.472 104.76 15.576 104.76 17.448V23H104.232ZM98.9839 20.728C98.9839 21.912 99.8959 22.712 101.272 22.712C103.064 22.712 104.216 21.48 104.216 19.592V18.776C103.384 18.712 102.824 18.696 102.328 18.696C100.056 18.696 98.9839 19.352 98.9839 20.728ZM110.56 13.496H110.112L108.048 11.512H108.72L110.336 13.048L111.968 11.512H112.64L110.56 13.496ZM110.272 23.176C108.16 23.176 106.688 21.384 106.688 18.808C106.688 16.248 108.16 14.472 110.272 14.472C112.096 14.472 113.392 15.672 113.76 17.688H113.232C112.912 15.944 111.808 14.92 110.272 14.92C108.48 14.92 107.232 16.52 107.232 18.808C107.232 21.112 108.48 22.728 110.272 22.728C111.824 22.728 112.928 21.704 113.248 19.944H113.76C113.424 21.96 112.096 23.176 110.272 23.176ZM121.254 19.704V14.632H121.798V23H121.27V21.272C120.854 22.36 119.782 23.16 118.47 23.16C116.758 23.16 115.686 22.216 115.686 20.136V14.632H116.23V19.992C116.23 21.976 117.222 22.712 118.549 22.712C120.182 22.712 121.254 21.384 121.254 19.704ZM125.349 12.696C125.349 13.048 125.093 13.304 124.741 13.304C124.389 13.304 124.133 13.048 124.133 12.696C124.133 12.36 124.389 12.12 124.741 12.12C125.093 12.12 125.349 12.36 125.349 12.696ZM124.997 14.632V24.232C124.997 25.496 124.245 26.248 122.965 26.248C122.709 26.248 122.341 26.232 122.005 26.088V25.608C122.341 25.72 122.597 25.752 122.933 25.752C123.877 25.752 124.453 25.272 124.453 24.232V14.632H124.997ZM131.48 22.504V23C131.112 23.128 130.824 23.16 130.536 23.16C129.32 23.16 128.28 22.6 128.28 20.824V15.064H126.168V14.632H128.28V12.152H128.824V14.632H131.576V15.064H128.824V20.728C128.824 22.2 129.576 22.664 130.568 22.664C130.888 22.664 131.128 22.632 131.48 22.504ZM136.229 23.176C133.973 23.176 132.469 21.4 132.469 18.728C132.469 16.296 134.037 14.472 136.149 14.472C138.389 14.472 139.845 16.264 139.765 18.936H132.997C133.077 21.24 134.309 22.728 136.229 22.728C137.861 22.728 138.997 21.768 139.285 20.184H139.813C139.493 22.008 138.101 23.176 136.229 23.176ZM136.149 14.92C134.389 14.92 133.093 16.376 132.997 18.488H139.205C139.093 16.248 137.957 14.92 136.149 14.92ZM68.872 39.96V45H68.328V36.632H68.856V38.408C69.352 37.272 70.456 36.472 71.72 36.472C73.496 36.472 74.6 37.592 74.6 39.56V45H74.056V39.752C74.056 37.944 73.192 36.92 71.624 36.92C70.104 36.92 68.872 38.28 68.872 39.96ZM78.0518 34.696C78.0518 35.048 77.7958 35.304 77.4438 35.304C77.0918 35.304 76.8358 35.048 76.8358 34.696C76.8358 34.36 77.0918 34.12 77.4438 34.12C77.7958 34.12 78.0518 34.36 78.0518 34.696ZM77.7158 45H77.1718V36.632H77.7158V45ZM82.9029 35.496H82.4549L80.3909 33.512H81.0629L82.6789 35.048L84.3109 33.512H84.9829L82.9029 35.496ZM85.8949 45H79.4309V44.696L85.0149 37.08H79.6869V36.632H85.6709V36.984L80.1349 44.552H85.8949V45ZM90.3932 35.496H89.9453L87.8813 33.512H88.5533L90.1693 35.048L91.8013 33.512H92.4733L90.3932 35.496ZM93.4493 42.856C93.4493 44.28 92.2653 45.16 90.3453 45.16C88.4413 45.16 87.1933 44.152 87.0493 42.504H87.5613C87.6733 43.88 88.7293 44.712 90.3453 44.712C91.9773 44.712 92.9053 44.056 92.9053 42.92C92.9053 41.928 92.3613 41.464 90.8413 41.16L89.7853 40.952C88.1533 40.632 87.3533 39.88 87.3533 38.712C87.3533 37.4 88.5373 36.472 90.2333 36.472C92.0573 36.472 93.2413 37.448 93.3533 39.048H92.8413C92.7133 37.704 91.7533 36.92 90.2333 36.92C88.8413 36.92 87.8973 37.624 87.8973 38.68C87.8973 39.672 88.4893 40.184 89.9773 40.472L91.0493 40.68C92.7293 41 93.4493 41.656 93.4493 42.856ZM96.5049 34.696C96.5049 35.048 96.2489 35.304 95.8969 35.304C95.5449 35.304 95.2889 35.048 95.2889 34.696C95.2889 34.36 95.5449 34.12 95.8969 34.12C96.2489 34.12 96.5049 34.36 96.5049 34.696ZM96.1689 45H95.6249V36.632H96.1689V45ZM101.932 45.176C99.676 45.176 98.172 43.4 98.172 40.728C98.172 38.296 99.74 36.472 101.852 36.472C104.092 36.472 105.548 38.264 105.468 40.936H98.7C98.78 43.24 100.012 44.728 101.932 44.728C103.564 44.728 104.7 43.768 104.988 42.184H105.516C105.196 44.008 103.804 45.176 101.932 45.176ZM101.852 36.92C100.092 36.92 98.796 38.376 98.7 40.488H104.908C104.796 38.248 103.66 36.92 101.852 36.92Z" fill="white"/>
</svg>
