<svg width="61" height="41" viewBox="0 0 61 41" fill="none" xmlns="http://www.w3.org/2000/svg">
<path d="M0.288 24.898C0.288 10.828 13.286 0.375992 28.16 2.386V11.766C20.254 10.694 14.224 13.776 12.616 19.94C13.688 19.672 14.76 19.538 15.698 19.538C21.594 19.538 25.882 23.96 25.882 29.454C25.882 35.752 21.058 40.174 13.822 40.174C5.648 40.174 0.288 34.412 0.288 24.898ZM32.716 24.898C32.716 10.828 45.714 0.375992 60.588 2.386V11.766C52.682 10.694 46.652 13.776 45.044 19.94C46.116 19.672 47.188 19.538 48.126 19.538C54.022 19.538 58.31 23.96 58.31 29.454C58.31 35.752 53.62 40.174 46.25 40.174C38.076 40.174 32.716 34.412 32.716 24.898Z" fill="#19243C"/>
</svg>
