<svg width="47" height="18" viewBox="0 0 47 18" fill="none" xmlns="http://www.w3.org/2000/svg">
<path d="M45.1385 9.27135C45.1049 9.23871 45.0713 9.20608 44.0218 8.40606C42.9725 7.60606 40.9082 6.03965 38.7812 4.42578" stroke="white" stroke-width="2" stroke-linecap="round"/>
<path d="M45.2398 9.36914C45.1391 9.38546 45.0383 9.40177 44.8354 9.45912C44.6326 9.51647 44.3305 9.61437 42.9161 10.3175C41.5018 11.0206 38.9843 12.3259 36.3906 13.6708" stroke="white" stroke-width="2" stroke-linecap="round"/>
<path d="M1 16.1412C1.23765 16.1218 1.47529 16.1027 2.83545 15.8424C4.1956 15.5822 6.67106 15.0816 9.18403 14.3713C11.697 13.6609 14.1725 12.756 16.1408 11.7989C18.1093 10.8417 19.4954 9.85981 20.4967 8.98815C21.4981 8.11648 22.0723 7.38485 22.4474 6.83466C22.8225 6.28448 22.9809 5.93791 23.1021 5.46095C23.2233 4.98398 23.3025 4.38711 23.2543 3.85823C23.206 3.32933 23.0277 2.8865 22.4805 2.43696C21.9331 1.98741 21.0222 1.54458 20.1369 1.28758C19.2518 1.03056 18.4201 0.972808 17.5955 1.01045C16.7709 1.04808 15.9788 1.18285 15.2737 1.44481C14.5686 1.70678 13.9744 2.09185 13.5099 2.61753C13.0455 3.14321 12.7286 3.79785 12.6149 4.49126C12.5012 5.18468 12.6002 5.89706 13.0077 6.57211C13.4151 7.24715 14.1281 7.86326 15.2083 8.40208C16.2885 8.9409 17.7143 9.38373 20.8154 9.72736C23.9166 10.071 28.6495 10.3021 32.8603 10.2382C37.071 10.1743 40.6158 9.80846 44.2681 9.43156" stroke="white" stroke-width="2" stroke-linecap="round"/>
</svg>
